<svg xmlns="http://www.w3.org/2000/svg" width="224.01" height="248.322" viewBox="0 0 224.01 248.322">
  <g id="COUNTRY" transform="translate(-44 -21)">
    <path id="Caminho_1" data-name="Caminho 1" d="M176.88,55.154a7.958,7.958,0,1,0-7.952-7.958,7.958,7.958,0,0,0,7.952,7.958Z" transform="translate(-58.923 -8.602)" fill="#4e4ee4"/>
    <path id="Caminho_2" data-name="Caminho 2" d="M169.48,68.809l13.863-18.545a18.38,18.38,0,0,0,3.769-12.208C186.567,29.67,179.823,21,169.48,21s-17.086,8.67-17.631,17.051a18.848,18.848,0,0,0,3.788,12.241Zm-.666-43.457a13.241,13.241,0,1,1-13.235,13.239A13.241,13.241,0,0,1,168.814,25.352Z" transform="translate(-50.858)" fill="#4e4ee4"/>
    <path id="Caminho_3" data-name="Caminho 3" d="M359.936,133.047a9.3,9.3,0,0,0,5.87,3.112l1.544.191a13.594,13.594,0,0,1,11.34,9.551,13.319,13.319,0,0,1-3.913,13.8l-15.292,13.522a8.8,8.8,0,0,0-2.97,6.593v3.588a6.882,6.882,0,0,0,3.158,5.8,12.777,12.777,0,0,1,5.812,9.51l.358,3.583a5.907,5.907,0,0,0,5.894,5.342h8.952a13.277,13.277,0,0,0,12.155-7.947l.538-1.226a12.829,12.829,0,0,1,11.234-7.714l2.1-.1c.236-.011.469-.027.7-.053l5.1-.514a172.944,172.944,0,0,0-5.681-29.449l-3,4.009a2.642,2.642,0,0,1-4.231,0l-12.846-17.178a19.933,19.933,0,0,1-3.968-12.984,19.637,19.637,0,0,1,2.783-8.888,118.977,118.977,0,0,0-17.705-14.358l-8.653,14.838a6.051,6.051,0,0,0,.712,6.963Z" transform="translate(-147.4 -42.566)" fill="#4e4ee4"/>
    <path id="Caminho_4" data-name="Caminho 4" d="M429.885,167.933l10.731-14.349a14.248,14.248,0,0,0,2.928-9.465c-.423-6.506-5.647-13.227-13.659-13.227s-13.236,6.722-13.658,13.22a14.63,14.63,0,0,0,2.947,9.5Zm-.535-34.58a11.161,11.161,0,1,1-11.159,11.16,11.161,11.161,0,0,1,11.159-11.16Z" transform="translate(-175.556 -51.831)" fill="#4e4ee4"/>
    <path id="Caminho_5" data-name="Caminho 5" d="M260.551,176.824q-.5.049-.993.072l-2.1.1a7.579,7.579,0,0,0-6.635,4.558l-.538,1.226a18.562,18.562,0,0,1-16.994,11.108h-8.952a11.174,11.174,0,0,1-11.151-10.1l-.358-3.582a7.521,7.521,0,0,0-3.42-5.6,12.144,12.144,0,0,1-5.576-10.242v-3.588a14.088,14.088,0,0,1,4.753-10.549L223.88,136.7a8.022,8.022,0,0,0,2.356-8.313,8.309,8.309,0,0,0-6.93-5.838l-1.544-.191a14.574,14.574,0,0,1-9.2-4.88,11.345,11.345,0,0,1-1.311-13.08l8.774-15.039a133.478,133.478,0,0,0-14.6-7.749c-15.533-7.03-31.628-10.745-46.547-10.745-1.419,0-2.972.045-4.614.131l11.732,16.924a18.471,18.471,0,0,1-.55,21.862l-3.761,4.884a14.459,14.459,0,0,1-13.241,5.5l-4.265-.545a9.65,9.65,0,0,0-9.553,4.692,14.515,14.515,0,0,1-14.361,7.057l-9.849-1.252a10.2,10.2,0,0,0-9.774,4.424,8.4,8.4,0,0,0-.142,9.205L103,154.03a7.424,7.424,0,0,0,9.746,2.567l6.7-3.593c4.413-2.367,10.859-2.633,16.1-.92a23.188,23.188,0,0,1,22.527-19.064c12.041,0,22.1,9.66,22.9,21.992a23.647,23.647,0,0,1-4.812,15.724l-4.133,5.529,2.426,3.329q.535.745,1.11,1.421l8.136,9.583a9.951,9.951,0,0,1-1.52,14.329l-12.334,9.482a14.05,14.05,0,0,0-4.892,7.044l-4.108,13.342a14.082,14.082,0,0,1-2.642,4.879l-4,4.814a17.63,17.63,0,0,0-3.987,9.484,12.116,12.116,0,0,1-7.364,9.933,8.955,8.955,0,0,1-12.3-6.791L126.8,234.49a11.741,11.741,0,0,0-2.233-5.167l-13.8-18.113a21.773,21.773,0,0,1-3.679-7.415l-4.555-16.449a11.509,11.509,0,0,0-8.023-8l-.99-.27a18.556,18.556,0,0,1-7.811-4.38l-8.5-8a25.007,25.007,0,0,1-4.488-5.661A13.1,13.1,0,0,0,59,154.722l-12.384,4.029A109.977,109.977,0,0,0,44,181.852c0,61.2,49.738,110.988,110.874,110.988S265.749,243.05,265.749,181.852c0-1.721-.066-3.58-.187-5.532Z" transform="translate(0 -23.518)" fill="#4e4ee4"/>
    <path id="Caminho_6" data-name="Caminho 6" d="M435.834,157.307a5.877,5.877,0,1,0-5.875-5.877,5.877,5.877,0,0,0,5.875,5.877Z" transform="translate(-182.04 -58.746)" fill="#4e4ee4"/>
    <path id="Caminho_7" data-name="Caminho 7" d="M79.544,136.57a7.958,7.958,0,1,0-7.952-7.956A7.958,7.958,0,0,0,79.544,136.57Z" transform="translate(-13.014 -47.002)" fill="#4e4ee4"/>
    <path id="Caminho_8" data-name="Caminho 8" d="M61.477,150.1a18.386,18.386,0,0,1,19.462,8.814,19.722,19.722,0,0,0,3.54,4.466l8.5,8a13.248,13.248,0,0,0,5.579,3.128l.99.27a16.817,16.817,0,0,1,11.724,11.686l4.555,16.449a16.514,16.514,0,0,0,2.79,5.623l13.8,18.112a17.036,17.036,0,0,1,3.243,7.5l3.767,22.623a3.672,3.672,0,0,0,5.041,2.788,6.836,6.836,0,0,0,4.153-5.6,22.9,22.9,0,0,1,5.178-12.316l4-4.814a8.832,8.832,0,0,0,1.654-3.059l4.108-13.342a19.307,19.307,0,0,1,6.722-9.678l12.333-9.48a4.667,4.667,0,0,0,.712-6.719l-8.136-9.583c-.475-.562-.936-1.15-1.364-1.746l-1.454-2-8.533,11.412a2.642,2.642,0,0,1-4.232,0l-15.979-21.373a24.662,24.662,0,0,1-4.82-13.15c-4-1.768-9.722-1.8-13.214.077l-6.7,3.593a12.567,12.567,0,0,1-5.952,1.494,12.723,12.723,0,0,1-10.756-5.892l-6.507-10.284a13.688,13.688,0,0,1,.231-14.992,15.451,15.451,0,0,1,14.817-6.7l9.849,1.252a9.241,9.241,0,0,0,9.14-4.491,14.929,14.929,0,0,1,14.778-7.255l4.266.545a9.157,9.157,0,0,0,8.385-3.487l3.761-4.884a13.209,13.209,0,0,0,.394-15.629L147.8,72c-1.5.149-3.026.324-4.552.523a24.845,24.845,0,0,1-2.891,4.966l-15.977,21.37a2.642,2.642,0,0,1-4.232,0L108.391,83.124a148.511,148.511,0,0,0-17.684,11.45A23.478,23.478,0,0,1,88.936,120.5l-15.978,21.37a2.642,2.642,0,0,1-4.231,0L60.255,130.54a124.48,124.48,0,0,0-8.522,22.713l9.44-3.071a2.642,2.642,0,0,1,.3-.079Z" transform="translate(-3.647 -24.054)" fill="#4e4ee4"/>
    <path id="Caminho_9" data-name="Caminho 9" d="M258.012,227.781a18.38,18.38,0,0,0,3.769-12.208c-.545-8.389-7.291-17.059-17.632-17.059s-17.087,8.67-17.631,17.051a18.848,18.848,0,0,0,3.788,12.241l13.844,18.515ZM230.25,216.108a13.236,13.236,0,1,1,13.237,13.241A13.236,13.236,0,0,1,230.25,216.108Z" transform="translate(-86.076 -83.726)" fill="#4e4ee4"/>
    <ellipse id="Elipse_1" data-name="Elipse 1" cx="7.952" cy="7.958" rx="7.952" ry="7.958" transform="translate(149.455 124.424)" fill="#4e4ee4"/>
    <path id="Caminho_10" data-name="Caminho 10" d="M72.142,150.223,86,131.679a18.379,18.379,0,0,0,3.769-12.208c-.545-8.389-7.291-17.059-17.632-17.059s-17.087,8.67-17.631,17.051A18.848,18.848,0,0,0,58.3,131.707Zm-.666-43.457a13.241,13.241,0,1,1-13.236,13.239,13.241,13.241,0,0,1,13.236-13.239Z" transform="translate(-4.948 -38.398)" fill="#4e4ee4"/>
  </g>
</svg>
